<svg width="24" height="24" viewBox="0 0 24 24" fill="none" xmlns="http://www.w3.org/2000/svg">
<g id="mdi:drama-masks">
<path id="Vector" d="M8.11012 19.4499C7.00444 19.0426 6.02049 18.3609 5.25078 17.4687C4.48108 16.5766 3.95091 15.5033 3.71012 14.3499L2.05012 6.53988C1.81012 5.45988 2.50012 4.39988 3.58012 4.16988L13.3501 2.09988L13.3801 2.08988C14.4501 1.87988 15.5001 2.56988 15.7201 3.62988L16.0701 5.29988L20.4201 6.22988H20.4501C21.5001 6.46988 22.1801 7.52988 21.9601 8.58988L20.3001 16.4099C20.1085 17.3082 19.7418 18.16 19.221 18.9165C18.7001 19.6731 18.0354 20.3196 17.2646 20.8192C16.4938 21.3188 15.6322 21.6617 14.7289 21.8283C13.8256 21.9948 12.8984 21.9818 12.0001 21.7899C10.4763 21.4719 9.10512 20.647 8.11012 19.4499ZM20.0001 8.17988L10.2301 6.09988L8.57012 13.9199V13.9499C8.00012 16.6299 9.73012 19.2699 12.4201 19.8399C15.1101 20.4099 17.7701 18.6899 18.3401 15.9999L20.0001 8.17988ZM16.0001 16.4999C15.6842 17.0347 15.2082 17.4567 14.6393 17.7061C14.0704 17.9555 13.4375 18.0198 12.8301 17.8899C12.2246 17.7603 11.6747 17.445 11.257 16.9878C10.8393 16.5307 10.5747 15.9546 10.5001 15.3399L16.0001 16.4999ZM8.47012 5.16988L4.00012 6.12988L5.66012 13.9399L5.67012 13.9699C5.82012 14.6799 6.12012 15.3199 6.53012 15.8699C6.43012 15.0999 6.45012 14.2999 6.62012 13.4999L7.05012 11.4999C6.60012 11.4199 6.21012 11.1699 6.00012 10.8099C6.06012 10.1999 6.56012 9.65988 7.25012 9.49988H7.50012L8.28012 5.68988C8.32012 5.49988 8.38012 5.32988 8.47012 5.16988ZM15.0301 12.2299C15.3501 11.6999 16.0301 11.4199 16.7201 11.5699C17.4101 11.7099 17.9101 12.2399 18.0001 12.8599C17.6701 13.3799 17.0001 13.6599 16.3001 13.4999C15.6101 13.3699 15.1101 12.8399 15.0301 12.2299ZM10.1501 11.1899C10.4701 10.6599 11.1401 10.3799 11.8301 10.5299C12.5001 10.6699 13.0301 11.2099 13.1101 11.8199C12.7801 12.3399 12.1101 12.6299 11.4201 12.4999C10.7301 12.3299 10.2301 11.7999 10.1501 11.1899ZM11.9701 4.42988L13.9301 4.84988L13.7701 4.04988L11.9701 4.42988Z" fill="#1C1C1C"/>
</g>
</svg>
