<svg width="24" height="24" viewBox="0 0 24 24" fill="none" xmlns="http://www.w3.org/2000/svg">
<g id="healthicons:female-and-male-outline">
<g id="Group">
<path id="Vector" fill-rule="evenodd" clip-rule="evenodd" d="M16.7501 7C16.2196 7 15.7109 6.78929 15.3359 6.41421C14.9608 6.03914 14.7501 5.53043 14.7501 5C14.7501 4.46957 14.9608 3.96086 15.3359 3.58579C15.7109 3.21071 16.2196 3 16.7501 3C17.2805 3 17.7892 3.21071 18.1643 3.58579C18.5394 3.96086 18.7501 4.46957 18.7501 5C18.7501 5.53043 18.5394 6.03914 18.1643 6.41421C17.7892 6.78929 17.2805 7 16.7501 7ZM16.7501 6C16.4849 6 16.2305 5.89464 16.043 5.70711C15.8554 5.51957 15.7501 5.26522 15.7501 5C15.7501 4.73478 15.8554 4.48043 16.043 4.29289C16.2305 4.10536 16.4849 4 16.7501 4C17.0153 4 17.2696 4.10536 17.4572 4.29289C17.6447 4.48043 17.7501 4.73478 17.7501 5C17.7501 5.26522 17.6447 5.51957 17.4572 5.70711C17.2696 5.89464 17.0153 6 16.7501 6ZM19.3151 8.4205C18.8196 8.1225 18.2726 8 17.7276 8H15.7731C15.2281 8 14.6811 8.1225 14.1856 8.4205C13.6906 8.718 13.3356 9.137 13.0896 9.592C12.6251 10.4505 12.5006 11.524 12.5006 12.572V12.616C12.5006 12.631 12.5006 12.646 12.5021 12.6605L12.5061 12.7045L12.5066 12.711L12.5076 12.733L12.5091 12.8115C12.5096 12.8795 12.5091 12.974 12.5081 13.103L12.5061 13.289V13.291C12.5031 13.495 12.5001 13.7375 12.5001 14C12.5001 14.2181 12.5477 14.4337 12.6395 14.6315C12.7313 14.8294 12.8652 15.0048 13.0318 15.1456C13.1984 15.2864 13.3938 15.3892 13.6042 15.4468C13.8146 15.5044 14.035 15.5154 14.2501 15.479V19.75C14.2492 20.0692 14.3704 20.3767 14.589 20.6093C14.8075 20.842 15.1068 20.9822 15.4254 21.0013C15.7441 21.0203 16.0579 20.9168 16.3027 20.7118C16.5474 20.5069 16.7044 20.216 16.7416 19.899L16.7506 19.825L16.7591 19.899C16.7962 20.216 16.9533 20.5069 17.198 20.7118C17.4427 20.9168 17.7566 21.0203 18.0752 21.0013C18.3938 20.9822 18.6931 20.842 18.9117 20.6093C19.1302 20.3767 19.2515 20.0692 19.2506 19.75V15.479C19.4656 15.5153 19.686 15.5042 19.8963 15.4466C20.1067 15.389 20.3019 15.2862 20.4685 15.1454C20.635 15.0046 20.7689 14.8292 20.8607 14.6314C20.9525 14.4335 21.0001 14.2181 21.0001 14C21.0001 13.737 20.9971 13.494 20.9946 13.29V13.2895L20.9921 13.103C20.9908 12.9797 20.9909 12.8563 20.9926 12.733L20.9936 12.711V12.7045L20.9981 12.6605C20.9991 12.6455 21.0001 12.6305 21.0001 12.616V12.572C21.0001 11.524 20.8751 10.4505 20.4101 9.592C20.1646 9.137 19.8096 8.718 19.3151 8.4205ZM14.0001 14.5C14.0878 14.5004 14.1741 14.4774 14.2501 14.4335V11.5H15.2501V19.75C15.2494 19.8142 15.2734 19.8762 15.3171 19.9232C15.3608 19.9701 15.421 19.9985 15.485 20.0023C15.5491 20.0062 15.6122 19.9853 15.6613 19.9439C15.7103 19.9025 15.7416 19.8438 15.7486 19.78L16.2536 15.5685C16.268 15.447 16.3266 15.335 16.4181 15.2537C16.5096 15.1724 16.6277 15.1276 16.7501 15.1276C16.8725 15.1276 16.9906 15.1724 17.0821 15.2537C17.1736 15.335 17.2321 15.447 17.2466 15.5685L17.7521 19.78C17.7591 19.8438 17.7903 19.9025 17.8394 19.9439C17.8884 19.9853 17.9515 20.0062 18.0156 20.0023C18.0797 19.9985 18.1398 19.9701 18.1836 19.9232C18.2273 19.8762 18.2513 19.8142 18.2506 19.75V11.5H19.2506V14.4335C19.3266 14.4774 19.4129 14.5005 19.5007 14.5005C19.5885 14.5005 19.6748 14.4773 19.7508 14.4334C19.8268 14.3894 19.8899 14.3262 19.9338 14.2502C19.9776 14.1741 20.0007 14.0878 20.0006 14C20.0006 13.744 19.9976 13.5055 19.9951 13.301L19.9926 13.1135C19.9879 12.9477 19.9899 12.7817 19.9986 12.616L20.0006 12.594V12.572C20.0006 11.574 19.8756 10.704 19.5316 10.068C19.3546 9.741 19.1151 9.4675 18.7996 9.278C18.4846 9.088 18.1221 9 17.7276 9H15.7731C15.3791 9 15.0166 9.088 14.7006 9.2775C14.3856 9.4675 14.1456 9.741 13.9691 10.0675C13.6251 10.704 13.5001 11.574 13.5001 12.5715V12.594L13.5021 12.616C13.5096 12.701 13.5106 12.862 13.5081 13.1135L13.5056 13.299V13.3015C13.5031 13.506 13.5006 13.7435 13.5006 14C13.5006 14.1326 13.5533 14.2598 13.647 14.3536C13.7408 14.4473 13.868 14.5 14.0006 14.5H14.0001ZM5.00007 5C5.00007 5.53043 5.21079 6.03914 5.58586 6.41421C5.96093 6.78929 6.46964 7 7.00007 7C7.53051 7 8.03921 6.78929 8.41429 6.41421C8.78936 6.03914 9.00007 5.53043 9.00007 5C9.00007 4.46957 8.78936 3.96086 8.41429 3.58579C8.03921 3.21071 7.53051 3 7.00007 3C6.46964 3 5.96093 3.21071 5.58586 3.58579C5.21079 3.96086 5.00007 4.46957 5.00007 5ZM6.00007 5C6.00007 5.26522 6.10543 5.51957 6.29297 5.70711C6.4805 5.89464 6.73486 6 7.00007 6C7.26529 6 7.51964 5.89464 7.70718 5.70711C7.89472 5.51957 8.00007 5.26522 8.00007 5C8.00007 4.73478 7.89472 4.48043 7.70718 4.29289C7.51964 4.10536 7.26529 4 7.00007 4C6.73486 4 6.4805 4.10536 6.29297 4.29289C6.10543 4.48043 6.00007 4.73478 6.00007 5ZM5.27707 8.222C5.58314 8.07191 5.92021 7.99587 6.26107 8H8.24007C8.45507 8 8.83007 8.024 9.22307 8.222C9.88857 8.557 10.2681 9.1055 10.4941 9.59C10.7096 10.054 10.8341 10.567 10.9261 10.994C11.0141 11.3995 11.0161 11.41 11.0661 11.6665C11.1136 11.9115 11.2071 12.3915 11.4711 13.705C11.5163 13.9302 11.5092 14.1628 11.4503 14.3848C11.3914 14.6068 11.2823 14.8123 11.1314 14.9855C10.9806 15.1587 10.7919 15.295 10.5801 15.3837C10.3682 15.4725 10.1388 15.5114 9.90957 15.4975L10.1796 17.0475C10.2541 17.4775 10.0371 17.946 9.57457 18.111C8.82743 18.371 8.04165 18.5025 7.25057 18.5C6.20257 18.5 5.38057 18.273 4.92657 18.111C4.46357 17.946 4.24657 17.477 4.32157 17.048L4.59157 15.498C4.36227 15.5116 4.13289 15.4725 3.92109 15.3836C3.70928 15.2946 3.5207 15.1583 3.36983 14.9851C3.21897 14.8119 3.10984 14.6064 3.05086 14.3843C2.99187 14.1623 2.98459 13.9298 3.02957 13.7045C3.29357 12.391 3.38707 11.911 3.43457 11.666C3.48457 11.41 3.48657 11.3995 3.57457 10.994C3.66657 10.567 3.79107 10.054 4.00657 9.59C4.23207 9.1055 4.61157 8.557 5.27707 8.222ZM6.50107 9H6.26107C6.11857 9 5.92157 9.017 5.72707 9.115C5.33057 9.315 5.08207 9.65 4.91307 10.012C4.74807 10.367 4.64207 10.7855 4.55157 11.2055C4.46557 11.604 4.46407 11.6105 4.41757 11.851L4.41607 11.857C4.36807 12.1045 4.27457 12.5855 4.01007 13.902C3.99108 13.9968 3.99995 14.095 4.03562 14.1848C4.07128 14.2746 4.13221 14.3522 4.21102 14.4081C4.28984 14.464 4.38317 14.4959 4.47973 14.4998C4.57628 14.5038 4.67192 14.4797 4.75507 14.4305L5.34807 11.1685L6.33157 11.3475L6.01907 13.0675L6.03107 13.0545L5.31257 17.1865C5.93697 17.396 6.59146 17.5019 7.25007 17.5C8.11657 17.5 8.80157 17.32 9.18807 17.1865L8.46957 13.0565L8.48157 13.07L8.16857 11.3475L9.15257 11.1685L9.74557 14.4305C9.82876 14.4796 9.92439 14.5036 10.0209 14.4996C10.1174 14.4955 10.2107 14.4635 10.2895 14.4076C10.3682 14.3516 10.4291 14.274 10.4647 14.1842C10.5003 14.0944 10.5091 13.9962 10.4901 13.9015C10.3523 13.2205 10.217 12.539 10.0841 11.857L10.0826 11.8515C10.0411 11.6355 9.99644 11.4202 9.94857 11.2055C9.85757 10.7855 9.75207 10.367 9.58657 10.012C9.41807 9.65 9.16957 9.3145 8.77307 9.115C8.60654 9.03537 8.42362 8.99598 8.23907 9H6.50107Z" fill="#1C1C1C"/>
<path id="Vector_2" d="M8.8575 20.9565C9.03597 20.9308 9.19921 20.8416 9.31729 20.7053C9.43538 20.5691 9.50042 20.3948 9.5005 20.2145V19C8.88985 19.0866 8.27525 19.1425 7.659 19.1675L8.031 20.4265C8.08204 20.5994 8.19368 20.7482 8.34547 20.8455C8.49726 20.9429 8.67904 20.9823 8.8575 20.9565ZM6.8675 19.177L6.465 20.442C6.4109 20.6128 6.29742 20.7586 6.14511 20.853C5.9928 20.9474 5.81173 20.9842 5.63466 20.9566C5.4576 20.9291 5.29626 20.839 5.17984 20.7028C5.06342 20.5666 4.99963 20.3932 5 20.214V19.046C5.6555 19.1245 6.264 19.1685 6.8675 19.177Z" fill="#1C1C1C"/>
</g>
</g>
</svg>
