<svg width="24" height="24" viewBox="0 0 24 24" fill="none" xmlns="http://www.w3.org/2000/svg">
<g id="nimbus:fire" clip-path="url(#clip0_30_4002)">
<path id="Vector" d="M13.9802 23.4795C13.8408 23.2992 13.7549 23.0834 13.7321 22.8567C13.7093 22.63 13.7505 22.4014 13.8512 22.197C14.1152 21.684 14.2187 21.0975 14.1512 20.52C14.0958 20.1079 13.9597 19.7108 13.7507 19.3515C13.5443 18.9968 13.2682 18.6876 12.9392 18.4425C11.8177 17.5996 11.0307 16.387 10.7177 15.0195C8.15565 18.378 9.13815 20.2845 10.3652 21.9645C10.509 22.1614 10.5848 22.3999 10.581 22.6437C10.5772 22.8876 10.4941 23.1236 10.3442 23.316C10.1914 23.5106 9.98642 23.6579 9.75315 23.7405C9.52259 23.8214 9.27343 23.8334 9.03615 23.775C7.37865 23.37 5.81865 22.599 4.76115 21.3705C4.1617 20.6881 3.70019 19.896 3.40215 19.038C3.10072 18.1727 2.96683 17.2579 3.00765 16.3425C3.00765 16.3425 2.80815 12.648 7.26315 9.02847C7.26315 9.02847 12.5282 4.56147 10.7012 1.25847C10.6338 1.09599 10.6139 0.917778 10.6436 0.74444C10.6733 0.571102 10.7515 0.409722 10.8692 0.278966C10.9835 0.150765 11.1345 0.06084 11.3016 0.0213937C11.4688 -0.0180525 11.6441 -0.00510957 11.8037 0.0584661L12.0227 0.145466C14.0058 1.39903 15.5557 3.23176 16.4627 5.39547C17.3327 7.51497 17.3267 9.98547 16.7387 12.186C17.2262 11.748 17.6327 11.2245 17.9402 10.6365L17.9837 10.5405C18.2807 9.82497 19.2152 10.053 19.5662 10.521C19.6952 10.7265 23.0042 15.5355 21.2267 19.593C20.5768 20.8223 19.6275 21.868 18.4667 22.6335C17.4926 23.2799 16.4041 23.7345 15.2597 23.973C15.0231 24.0228 14.7772 24.003 14.5517 23.916C14.3241 23.8275 14.126 23.6767 13.9802 23.481V23.4795ZM11.3312 11.838C11.4712 11.765 11.6335 11.747 11.7861 11.7875C11.9388 11.828 12.0707 11.9241 12.1562 12.057C12.2162 12.1455 12.2552 12.246 12.2687 12.354L12.3362 12.8775C12.3662 13.644 12.3572 14.445 12.6557 15.1815C12.9647 15.9375 13.4447 16.6065 14.0537 17.1285C14.8382 17.6447 15.4455 18.3892 15.7937 19.2615C16.1237 20.1075 16.1687 21.0465 15.9197 21.921C16.6815 21.6807 17.3895 21.2951 18.0047 20.7855L18.1592 20.6595C18.6632 20.244 19.0787 19.725 19.3787 19.134C19.6802 18.5445 19.8617 17.8965 19.9097 17.2305C20.0072 15.693 19.4837 14.1495 18.6692 12.7725C18.2972 13.3125 17.7842 13.731 17.1917 13.9785C16.8212 14.136 16.4282 14.2335 16.0277 14.2635C15.7983 14.2782 15.5695 14.2261 15.3692 14.1135C15.1657 13.9979 14.9989 13.8274 14.8877 13.6215C14.7956 13.4554 14.743 13.2705 14.7339 13.0808C14.7248 12.8912 14.7594 12.7021 14.8352 12.528C15.4532 11.07 15.6452 9.45297 15.3827 7.88247C15.0719 6.08567 14.2114 4.42954 12.9197 3.14247C12.6857 6.44997 9.29415 9.52947 8.59815 10.1925C8.49027 10.2941 8.37817 10.3912 8.26215 10.4835C4.62315 13.431 4.87215 16.116 4.87215 16.2345C4.79989 17.3011 5.03908 18.3658 5.56065 19.299C6.10815 20.2665 6.89565 21.0645 7.84065 21.609C6.75015 19.212 6.75015 16.335 10.7747 12.21L11.3327 11.835L11.3312 11.838Z" fill="#1C1C1C"/>
</g>
<defs>
<clipPath id="clip0_30_4002">
<rect width="24" height="24" fill="white"/>
</clipPath>
</defs>
</svg>
