<svg width="28" height="29" viewBox="0 0 28 29" fill="none" xmlns="http://www.w3.org/2000/svg">
<g id="mi:log-out">
<g id="Group">
<path id="Vector" fill-rule="evenodd" clip-rule="evenodd" d="M12.0706 26.1185C12.0706 25.7174 11.924 25.3328 11.6632 25.0491C11.4023 24.7655 11.0485 24.6062 10.6796 24.6062H3.72443V3.43349H10.6796C11.0485 3.43349 11.4023 3.27415 11.6632 2.99053C11.924 2.70691 12.0706 2.32225 12.0706 1.92115C12.0706 1.52005 11.924 1.13538 11.6632 0.851766C11.4023 0.568148 11.0485 0.408813 10.6796 0.408813H3.72443C2.98659 0.408813 2.27896 0.727483 1.75723 1.29472C1.23549 1.86196 0.942383 2.63129 0.942383 3.43349V24.6062C0.942383 25.4084 1.23549 26.1777 1.75723 26.745C2.27896 27.3122 2.98659 27.6309 3.72443 27.6309H10.6796C11.0485 27.6309 11.4023 27.4715 11.6632 27.1879C11.924 26.9043 12.0706 26.5196 12.0706 26.1185Z" fill="#C4C4C4"/>
<path id="Vector_2" d="M26.9735 15.0819C27.2279 14.8007 27.3708 14.4222 27.3713 14.0278V14.0187C27.3706 13.6191 27.224 13.2362 26.9638 12.954L21.3997 6.90469C21.2713 6.76025 21.1178 6.64504 20.9481 6.56577C20.7784 6.48651 20.5959 6.4448 20.4112 6.44305C20.2265 6.44131 20.0433 6.47957 19.8724 6.55561C19.7014 6.63165 19.5461 6.74395 19.4155 6.88595C19.2849 7.02794 19.1816 7.1968 19.1117 7.38266C19.0417 7.56852 19.0065 7.76766 19.0081 7.96847C19.0097 8.16928 19.0481 8.36773 19.121 8.55224C19.1939 8.73675 19.2999 8.90363 19.4327 9.04313L22.6224 12.5109H9.288C8.91908 12.5109 8.56526 12.6703 8.30439 12.9539C8.04353 13.2375 7.89697 13.6222 7.89697 14.0233C7.89697 14.4244 8.04353 14.809 8.30439 15.0926C8.56526 15.3763 8.91908 15.5356 9.288 15.5356H22.6224L19.4327 19.0034C19.1794 19.2886 19.0392 19.6706 19.0423 20.0672C19.0455 20.4637 19.1918 20.843 19.4497 21.1234C19.7076 21.4038 20.0565 21.5629 20.4212 21.5663C20.7859 21.5697 21.1373 21.4173 21.3997 21.1418L26.9638 15.0925L26.9735 15.0819Z" fill="#C4C4C4"/>
</g>
</g>
</svg>
