<svg width="24" height="24" viewBox="0 0 24 24" fill="none" xmlns="http://www.w3.org/2000/svg">
<g id="ri:knife-line">
<path id="Vector" d="M4.34208 1.40796L22.3731 19.44C22.6545 19.7212 22.8126 20.1027 22.8127 20.5006C22.8128 20.8985 22.6548 21.2801 22.3736 21.5615C22.0923 21.8429 21.7108 22.001 21.3129 22.0011C20.9151 22.0012 20.5335 21.8432 20.2521 21.562L15.6561 16.965L12.1201 20.5L4.34208 12.722C2.87215 11.2522 2.03199 9.2681 1.99951 7.18971C1.96704 5.11132 2.74479 3.10189 4.16808 1.58696L4.34208 1.40796ZM4.58308 4.47796L4.53208 4.58796C4.04717 5.66002 3.88789 6.85091 4.07402 8.01272C4.26016 9.17453 4.78352 10.2561 5.57908 11.123L5.75608 11.308L12.1191 17.671L14.9481 14.843L4.58308 4.47796Z" fill="#1C1C1C"/>
</g>
</svg>
