<svg width="24" height="24" viewBox="0 0 24 24" fill="none" xmlns="http://www.w3.org/2000/svg">
<g id="bi:balloon-heart" clip-path="url(#clip0_30_3994)">
<path id="Vector" fill-rule="evenodd" clip-rule="evenodd" d="M12 3.63008L10.9245 2.52458C9.22954 0.783082 6.06004 1.35908 4.90954 3.60458C4.38454 4.63208 4.23304 6.16508 5.26354 8.19758C6.24004 10.1296 8.28004 12.4801 12 15.0631C15.7185 12.4786 17.7585 10.1281 18.7365 8.19758C19.767 6.16508 19.617 4.63208 19.0905 3.60608C17.94 1.35908 14.7705 0.783082 13.0755 2.52458L12 3.63008ZM11.265 16.3801C-4.90496 5.22008 6.76504 -3.35242 11.8035 1.28558C11.871 1.34708 11.937 1.41158 12.0015 1.47908C12.066 1.41158 12.132 1.34708 12.1995 1.28558C17.2395 -3.35242 28.905 5.22158 12.735 16.3801L13.0875 17.0821C13.1096 17.1262 13.1228 17.1742 13.1263 17.2235C13.1298 17.2727 13.1235 17.3221 13.1079 17.3689C13.0923 17.4157 13.0677 17.4589 13.0353 17.4962C13.003 17.5335 12.9637 17.564 12.9195 17.5861C12.8754 17.6081 12.8274 17.6213 12.7782 17.6248C12.729 17.6283 12.6795 17.6221 12.6327 17.6065C12.5859 17.5909 12.5427 17.5662 12.5054 17.5339C12.4681 17.5016 12.4376 17.4622 12.4155 17.4181L12.4035 17.3926C12.4155 17.5576 12.4335 17.6956 12.459 17.8276C12.54 18.2326 12.7005 18.5596 13.0875 19.3321C13.5195 20.1991 13.44 21.0571 13.2015 21.7756C12.966 22.4791 12.5685 23.0761 12.3195 23.4481L12.3135 23.4586C12.2862 23.4996 12.251 23.5347 12.21 23.5621C12.169 23.5895 12.1231 23.6085 12.0747 23.6181C12.0264 23.6277 11.9766 23.6277 11.9283 23.6181C11.88 23.6085 11.834 23.5895 11.793 23.5621C11.7521 23.5347 11.7169 23.4995 11.6895 23.4585C11.6621 23.4176 11.6431 23.3716 11.6335 23.3233C11.6239 23.2749 11.6239 23.2252 11.6335 23.1769C11.6431 23.1285 11.6622 23.0826 11.6895 23.0416C11.9415 22.6636 12.2895 22.1416 12.489 21.5371C12.6885 20.9431 12.7335 20.3011 12.4155 19.6681L12.396 19.6261C12.036 18.9061 11.826 18.4891 11.724 17.9731C11.682 17.7502 11.6559 17.5247 11.646 17.2981L11.586 17.4181C11.5642 17.4625 11.5338 17.5022 11.4966 17.5348C11.4593 17.5674 11.416 17.5923 11.3691 17.6081C11.3222 17.6239 11.2727 17.6302 11.2233 17.6268C11.1739 17.6233 11.1257 17.6101 11.0815 17.5879C11.0372 17.5658 10.9978 17.5351 10.9655 17.4976C10.9332 17.4601 10.9086 17.4166 10.8932 17.3696C10.8777 17.3225 10.8718 17.2729 10.8756 17.2236C10.8795 17.1742 10.893 17.1262 10.9155 17.0821L11.268 16.3801H11.265ZM9.01954 3.09008C8.04604 2.82008 6.79504 3.21458 6.24454 4.28708C6.04804 4.67408 5.87704 5.32058 6.12454 6.28958C6.21904 6.65558 6.74554 6.58658 6.85504 6.22508C7.17004 5.17958 7.79554 4.05458 8.89354 3.68708C9.21904 3.57758 9.34954 3.18158 9.01954 3.09008Z" fill="#1C1C1C"/>
</g>
<defs>
<clipPath id="clip0_30_3994">
<rect width="24" height="24" fill="white"/>
</clipPath>
</defs>
</svg>
