<svg width="24" height="24" viewBox="0 0 24 24" fill="none" xmlns="http://www.w3.org/2000/svg">
<g id="la:laugh-squint">
<path id="Vector" d="M12 2.25C6.624 2.25 2.25 6.624 2.25 12C2.25 17.376 6.624 21.75 12 21.75C17.376 21.75 21.75 17.376 21.75 12C21.75 6.624 17.376 2.25 12 2.25ZM12 3.75C16.5487 3.75 20.25 7.45125 20.25 12C20.25 16.5487 16.5487 20.25 12 20.25C7.45125 20.25 3.75 16.5487 3.75 12C3.75 7.45125 7.45125 3.75 12 3.75ZM7.54125 8.376L6.70875 9.624L8.02275 10.5L6.70875 11.376L7.54125 12.624L10.7273 10.5L7.54125 8.376ZM16.4587 8.376L13.2728 10.5L16.4587 12.624L17.2913 11.376L15.9772 10.5L17.2913 9.624L16.4587 8.376ZM6.75 14.25C6.75 14.25 7.95375 18 12 18C16.0463 18 17.25 14.25 17.25 14.25H6.75Z" fill="#1C1C1C"/>
</g>
</svg>
