<svg width="24" height="24" viewBox="0 0 24 24" fill="none" xmlns="http://www.w3.org/2000/svg">
<g id="eos-icons:science-outlined">
<path id="Vector" d="M12.9999 10L18.9489 19.516C18.9786 19.5639 18.995 19.6189 18.9964 19.6752C18.9978 19.7316 18.9841 19.7873 18.9568 19.8366C18.9295 19.8859 18.8895 19.927 18.841 19.9557C18.7925 19.9845 18.7373 19.9997 18.6809 20H5.3189C5.26225 19.9997 5.20671 19.9843 5.15805 19.9552C5.1094 19.9262 5.06942 19.8847 5.04226 19.835C5.0151 19.7852 5.00176 19.7292 5.00364 19.6725C5.00551 19.6159 5.02252 19.5608 5.0529 19.513L10.9999 10V3H12.9999V10ZM6.9999 1V3H8.9999V9.46L3.3589 18.45C3.13896 18.8005 3.01686 19.2036 3.0053 19.6172C2.99374 20.0309 3.09312 20.4401 3.29314 20.8024C3.49316 21.1647 3.78651 21.4668 4.14274 21.6774C4.49897 21.888 4.90508 21.9994 5.3189 22H18.6809C19.0947 21.9994 19.5008 21.888 19.8571 21.6774C20.2133 21.4668 20.5067 21.1647 20.7067 20.8024C20.9067 20.4401 21.0061 20.0309 20.9945 19.6172C20.9829 19.2036 20.8609 18.8005 20.6409 18.45L15.0009 9.46L14.9999 3H16.9999V1H6.9999Z" fill="#1C1C1C"/>
</g>
</svg>
